<svg xmlns="http://www.w3.org/2000/svg" viewBox="0 0 500.26 500.26"><defs><style>.cls-1{fill:#fff;}.cls-2{fill:none;stroke:#0e0e0e;stroke-miterlimit:10;stroke-width:3px;}</style></defs><title>arrow-down_small</title><g id="BACKGROUND"><rect class="cls-1" width="500.26" height="500.26"/></g><g id="OBJECTS"><g id="OBJECTS-2" data-name="OBJECTS"><polyline class="cls-2" points="299.93 368.63 286.54 382.02 273.15 368.63"/><polyline class="cls-2" points="295.41 362.1 286.13 371.38 276.85 362.1"/><polyline class="cls-2" points="299.93 375.49 286.54 362.1 273.15 375.49"/><polyline class="cls-2" points="295.41 382.02 286.13 372.74 276.85 382.02"/><polygon class="cls-2" points="256.15 365.81 253.16 372.06 256.15 378.31 241.32 372.06 256.15 365.81"/><line class="cls-2" x1="276.29" y1="372.06" x2="252.98" y2="372.06"/><polygon class="cls-2" points="316.84 365.81 319.82 372.06 316.84 378.31 331.67 372.06 316.84 365.81"/><line class="cls-2" x1="296.79" y1="372.06" x2="319.7" y2="372.06"/><path class="cls-2" d="M258.41,369.85v4.82"/><path class="cls-2" d="M315.08,369.85v4.82"/></g></g></svg>